<svg xmlns="http://www.w3.org/2000/svg" width="201" height="96" viewBox="0 0 201 96"><defs><style>.a{fill:#fff;}.b{fill:none;stroke:#fff;stroke-miterlimit:10;}</style></defs><g transform="translate(-598.5 -601.5)"><g transform="translate(618.361 622.979)"><path class="a" d="M307.942,162.127l4.663,13.166,4.637-13.166h4.912v18.152H318.4v-4.962l.374-8.565-4.9,13.527h-2.569l-4.887-13.514.374,8.552v4.962h-3.74V162.127Z" transform="translate(-302.802 -161.878)"/><path class="a" d="M331.731,176.539h-6.558l-1.247,3.74h-3.977l6.757-18.152h3.466l6.794,18.152H332.99Zm-5.548-3.029h4.538l-2.281-6.794Z" transform="translate(-298.129 -161.878)"/><path class="a" d="M347.743,165.156h-5.56v15.123h-3.74V165.156h-5.486v-3.029h14.786Z" transform="translate(-293.999 -161.878)"/><path class="a" d="M360.673,165.156h-5.561v15.123h-3.739V165.156h-5.486v-3.029h14.786Z" transform="translate(-290.193 -161.878)"/><path class="a" d="M373.91,175.571a1.92,1.92,0,0,0-.748-1.628,9.807,9.807,0,0,0-2.692-1.2,19.021,19.021,0,0,1-3.079-1.241q-3.094-1.672-3.092-4.5a4.384,4.384,0,0,1,.829-2.625,5.408,5.408,0,0,1,2.381-1.8,8.954,8.954,0,0,1,3.485-.649,8.161,8.161,0,0,1,3.466.7,5.512,5.512,0,0,1,2.362,1.988,5.2,5.2,0,0,1,.841,2.917h-3.739a2.448,2.448,0,0,0-.785-1.938,3.235,3.235,0,0,0-2.207-.692,3.445,3.445,0,0,0-2.132.58,1.831,1.831,0,0,0-.761,1.527,1.749,1.749,0,0,0,.892,1.483,9.991,9.991,0,0,0,2.623,1.122,11.348,11.348,0,0,1,4.651,2.382,4.738,4.738,0,0,1,1.458,3.54,4.37,4.37,0,0,1-1.782,3.7,7.817,7.817,0,0,1-4.8,1.339,9.271,9.271,0,0,1-3.814-.766,6.037,6.037,0,0,1-2.625-2.1,5.381,5.381,0,0,1-.9-3.092h3.753q0,3,3.59,3.005a3.5,3.5,0,0,0,2.082-.543A1.763,1.763,0,0,0,373.91,175.571Z" transform="translate(-284.946 -161.932)"/><path class="a" d="M391.4,174.287a6.416,6.416,0,0,1-2.163,4.612,7.592,7.592,0,0,1-5.142,1.683,6.831,6.831,0,0,1-5.492-2.349,9.638,9.638,0,0,1-2-6.452v-1.109a10.9,10.9,0,0,1,.922-4.614,6.932,6.932,0,0,1,2.637-3.06,8.241,8.241,0,0,1,9.045.617,6.9,6.9,0,0,1,2.219,4.725h-3.74a3.794,3.794,0,0,0-.978-2.549A3.629,3.629,0,0,0,384.14,165a3.18,3.18,0,0,0-2.8,1.34,7.535,7.535,0,0,0-.954,4.158v1.371a8.039,8.039,0,0,0,.892,4.3,3.118,3.118,0,0,0,2.811,1.36,3.691,3.691,0,0,0,2.586-.791,3.579,3.579,0,0,0,.979-2.45Z" transform="translate(-281.155 -161.932)"/><path class="a" d="M405.543,171.669a10.975,10.975,0,0,1-.947,4.7,7.143,7.143,0,0,1-2.712,3.116,8.016,8.016,0,0,1-8.072.013,7.213,7.213,0,0,1-2.743-3.1,10.648,10.648,0,0,1-.984-4.632v-.9a10.888,10.888,0,0,1,.966-4.718,7.191,7.191,0,0,1,2.729-3.13,8.006,8.006,0,0,1,8.067,0,7.191,7.191,0,0,1,2.729,3.13,10.875,10.875,0,0,1,.966,4.706Zm-3.789-.823a7.649,7.649,0,0,0-1.023-4.338,3.612,3.612,0,0,0-5.823-.019,7.547,7.547,0,0,0-1.034,4.3v.885a7.734,7.734,0,0,0,1.021,4.314,3.581,3.581,0,0,0,5.835.056,7.7,7.7,0,0,0,1.023-4.307Z" transform="translate(-277.179 -161.932)"/><path class="a" d="M417.8,165.156h-5.561v15.123H408.5V165.156h-5.484v-3.029H417.8Z" transform="translate(-273.152 -161.878)"/><path class="a" d="M430.728,165.156h-5.56v15.123h-3.74V165.156h-5.486v-3.029h14.786Z" transform="translate(-269.576 -161.878)"/><path class="a" d="M302.857,209.246V182.018h8.378a12.722,12.722,0,0,1,6.424,1.617,11.283,11.283,0,0,1,4.422,4.6,14.185,14.185,0,0,1,1.589,6.779v1.252a14.236,14.236,0,0,1-1.561,6.751,11.186,11.186,0,0,1-4.4,4.582,12.814,12.814,0,0,1-6.414,1.646Zm5.611-22.684v18.178h2.712a6.091,6.091,0,0,0,5.03-2.151,9.713,9.713,0,0,0,1.777-6.152V195q0-4.152-1.721-6.292a6.072,6.072,0,0,0-5.03-2.142Z" transform="translate(-302.857 -156.376)"/><path class="a" d="M339.337,197.446H328.566v7.293h12.641v4.506H322.955V182.018H341.17v4.543h-12.6v6.489h10.771Z" transform="translate(-296.933 -156.376)"/><path class="a" d="M354.8,202.183a2.877,2.877,0,0,0-1.122-2.44,14.707,14.707,0,0,0-4.039-1.8,28.718,28.718,0,0,1-4.619-1.86q-4.638-2.507-4.638-6.751a6.576,6.576,0,0,1,1.245-3.937,8.1,8.1,0,0,1,3.572-2.7,13.436,13.436,0,0,1,5.225-.973,12.236,12.236,0,0,1,5.2,1.057,8.271,8.271,0,0,1,3.544,2.982,7.805,7.805,0,0,1,1.261,4.376h-5.609a3.672,3.672,0,0,0-1.178-2.908,4.842,4.842,0,0,0-3.31-1.038,5.177,5.177,0,0,0-3.2.869,2.744,2.744,0,0,0-1.14,2.29,2.627,2.627,0,0,0,1.338,2.226,15.112,15.112,0,0,0,3.936,1.683,17.018,17.018,0,0,1,6.975,3.572,7.114,7.114,0,0,1,2.187,5.311,6.552,6.552,0,0,1-2.673,5.544,11.709,11.709,0,0,1-7.2,2.011,13.887,13.887,0,0,1-5.722-1.15,9.044,9.044,0,0,1-3.936-3.151,8.071,8.071,0,0,1-1.357-4.638h5.629q0,4.508,5.386,4.506a5.236,5.236,0,0,0,3.123-.813A2.647,2.647,0,0,0,354.8,202.183Z" transform="translate(-292.034 -156.457)"/><path class="a" d="M365.359,209.246H359.75V182.018h5.609Z" transform="translate(-286.174 -156.376)"/><path class="a" d="M390.506,205.886a9.734,9.734,0,0,1-4.282,2.814,17.917,17.917,0,0,1-6.134,1,12.144,12.144,0,0,1-6.2-1.543,10.285,10.285,0,0,1-4.115-4.478,15.767,15.767,0,0,1-1.486-6.9v-1.851a16.739,16.739,0,0,1,1.374-7.06,10.163,10.163,0,0,1,3.965-4.563,11.421,11.421,0,0,1,6.069-1.58q4.843,0,7.573,2.309a9.863,9.863,0,0,1,3.235,6.723h-5.46a5.429,5.429,0,0,0-1.656-3.423,5.287,5.287,0,0,0-3.525-1.084,4.975,4.975,0,0,0-4.357,2.15q-1.5,2.15-1.514,6.4v1.739q0,4.284,1.626,6.471a5.575,5.575,0,0,0,4.769,2.188q3.16,0,4.506-1.347v-4.694h-5.105v-4.132h10.715Z" transform="translate(-283.537 -156.457)"/><path class="a" d="M411.992,209.246h-5.609l-10.921-17.915v17.915h-5.609V182.018h5.609L406.4,199.97V182.018h5.592Z" transform="translate(-277.172 -156.376)"/><path class="a" d="M426,202.183a2.877,2.877,0,0,0-1.122-2.44,14.707,14.707,0,0,0-4.039-1.8,28.718,28.718,0,0,1-4.619-1.86q-4.638-2.507-4.638-6.751a6.583,6.583,0,0,1,1.243-3.937,8.1,8.1,0,0,1,3.572-2.7,13.444,13.444,0,0,1,5.228-.973,12.235,12.235,0,0,1,5.2,1.057,8.268,8.268,0,0,1,3.543,2.982,7.807,7.807,0,0,1,1.263,4.376h-5.609a3.672,3.672,0,0,0-1.178-2.908,4.842,4.842,0,0,0-3.31-1.038,5.177,5.177,0,0,0-3.2.869,2.744,2.744,0,0,0-1.14,2.29,2.628,2.628,0,0,0,1.337,2.226,15.125,15.125,0,0,0,3.937,1.683,17.017,17.017,0,0,1,6.975,3.572,7.114,7.114,0,0,1,2.187,5.311,6.553,6.553,0,0,1-2.673,5.544,11.709,11.709,0,0,1-7.2,2.011,13.888,13.888,0,0,1-5.722-1.15A9.048,9.048,0,0,1,412.1,205.4a8.071,8.071,0,0,1-1.356-4.638h5.629q0,4.508,5.386,4.506a5.236,5.236,0,0,0,3.123-.813A2.647,2.647,0,0,0,426,202.183Z" transform="translate(-271.015 -156.457)"/></g><rect class="b" width="200" height="95" transform="translate(599 602)"/></g></svg>